<svg xmlns="http://www.w3.org/2000/svg" viewBox="-0.1 -0.1 12.2 8.2">
	<path d="M 8 6 H 0 V 7 H 4 V 4 H 3 V 7 M 1 6 V 7 M 2 6 V 7 M 3 5 H 8 M 5 5 V 6 M 6 5 V 6 M 7 8 V 3 H 12 M 12 2 V 6 H 11 V 2 H 12 M 12 4 H 7 M 10 4 V 0 H 9 V 4 M 11 5 H 12 M 9 1 H 10 M 9 2 H 10 M 8 3 V 8 M 9 7 V 8 H 5 V 7 H 9 M 6 7 V 8" stroke="#000000" stroke-width="0.04" fill="none"/>
    <g font-size="0.3">
        <text x="3" y="5.25">A</text>
        <text x="1" y="6.25">B</text>
        <text x="6" y="7.25">C</text>
        <text x="7" y="4.25">D</text>
        <text x="9" y="3.25">E</text>
    </g>
    <g font-size="1">
        <text x="9" y="0.8">あ</text>
        <text x="9" y="1.8">い</text>
        <text x="9" y="2.8">ほ</text>
        <text x="11" y="2.8">ぷ</text>
        <text x="7" y="3.8">ひこうどり</text>
        <text x="3" y="4.8">み</text>
        <text x="7" y="4.8">ょ</text>
        <text x="11" y="4.8">ゅ</text>
        <text x="3" y="5.8">かんしょう</text>
        <text x="11" y="5.8">ま</text>
        <text x="0" y="6.8">さいはん</text>
        <text x="7" y="6.8">げ</text>
        <text x="5" y="7.8">てりんぐ</text>
    </g>
</svg>